<?xml version="1.0" standalone="no"?>
<!DOCTYPE svg PUBLIC "-//W3C//DTD SVG 20010904//EN"
 "http://www.w3.org/TR/2001/REC-SVG-20010904/DTD/svg10.dtd">
<svg version="1.0" xmlns="http://www.w3.org/2000/svg"
 width="250.000000pt" height="250.000000pt" viewBox="0 0 250.000000 250.000000"
 preserveAspectRatio="xMidYMid meet">
<metadata>
Created by potrace 1.14, written by Peter Selinger 2001-2017
</metadata>
<g transform="translate(0.000000,250.000000) scale(0.100000,-0.100000)"
fill="#000000" stroke="none">
<path d="M1190 2262 c-252 -32 -451 -211 -518 -468 -15 -57 -19 -64 -47 -70
-16 -3 -67 -17 -111 -30 -288 -83 -430 -232 -370 -389 22 -55 106 -135 189
-177 66 -33 256 -98 288 -98 10 0 19 -3 19 -8 0 -4 -45 -165 -100 -357 -55
-192 -100 -356 -100 -363 0 -25 56 -72 80 -67 46 9 58 17 69 43 6 15 55 182
110 372 l98 345 34 -3 c18 -2 42 -6 53 -8 47 -9 232 -18 366 -18 133 0 215 4
390 20 l65 6 100 -353 c67 -236 107 -361 121 -378 37 -43 112 -25 129 30 4 11
-39 179 -95 375 -56 195 -100 357 -98 358 1 2 34 11 72 20 180 44 336 130 396
217 88 130 21 273 -173 367 -81 40 -209 84 -279 97 -34 7 -37 10 -47 56 -34
156 -128 295 -261 384 -116 77 -255 113 -380 97z m184 -174 c167 -55 296 -218
312 -393 6 -72 -27 -104 -139 -130 -238 -55 -622 -23 -716 59 -21 19 -22 27
-17 76 11 106 67 214 154 297 104 99 268 136 406 91z m-674 -551 c31 -44 76
-73 163 -101 119 -39 210 -50 407 -50 298 -1 464 47 533 155 11 16 28 29 39
29 38 0 232 -71 283 -103 96 -60 108 -95 50 -146 -100 -88 -350 -161 -640
-188 -100 -10 -478 -10 -565 -1 -321 35 -543 99 -645 189 -44 39 -45 69 -5
107 37 36 143 88 240 118 102 31 113 30 140 -9z"/>
</g>
</svg>
